<?xml version="1.0" standalone="no"?>
<!DOCTYPE svg PUBLIC "-//W3C//DTD SVG 20010904//EN"
 "http://www.w3.org/TR/2001/REC-SVG-20010904/DTD/svg10.dtd">
<svg version="1.0" xmlns="http://www.w3.org/2000/svg"
 width="700.000000pt" height="700.000000pt" viewBox="0 0 700.000000 700.000000"
 preserveAspectRatio="xMidYMid meet">
<metadata>
Created by potrace 1.11, written by Peter Selinger 2001-2013
</metadata>
<g transform="translate(0.000000,700.000000) scale(0.100000,-0.100000)"
fill="#000000" stroke="none">
<path d="M3947 6204 c-1 -1 -56 -5 -122 -8 -172 -9 -386 -31 -505 -51 -14 -2
-41 -7 -60 -10 -64 -11 -221 -45 -263 -57 -23 -6 -46 -12 -52 -14 -23 -5 -193
-64 -230 -79 -205 -87 -343 -175 -489 -315 -212 -202 -368 -519 -473 -960 -29
-123 -30 -125 -38 -182 l-7 -44 221 1 c143 0 221 -3 222 -10 3 -27 4 -1941 2
-1950 -2 -7 -92 -10 -254 -10 l-250 0 5 -35 c9 -56 20 -112 42 -215 35 -164
139 -443 196 -527 10 -14 18 -29 18 -33 0 -11 82 -128 141 -200 131 -162 293
-285 510 -388 149 -71 535 -191 674 -210 22 -3 47 -8 55 -11 19 -7 274 -43
355 -51 33 -4 71 -8 85 -10 14 -2 66 -7 115 -11 50 -3 101 -8 115 -9 14 -2 97
-7 185 -11 377 -18 781 -3 1030 40 22 4 56 8 75 11 31 3 153 26 218 40 12 3
31 7 41 9 145 33 435 136 525 187 11 6 40 23 65 36 262 145 491 422 634 768
34 84 108 308 122 373 2 9 17 78 34 152 16 74 32 155 35 180 3 25 8 56 11 70
8 39 14 81 20 130 2 25 7 64 10 88 21 171 30 382 30 707 -1 280 -8 489 -20
590 -2 17 -7 57 -11 90 -16 150 -18 164 -44 308 -45 250 -136 525 -226 682
-69 123 -153 233 -251 329 -50 50 -105 101 -121 113 -136 103 -352 216 -527
276 -93 32 -382 110 -450 121 -206 34 -279 46 -330 52 -33 3 -71 8 -85 10 -14
2 -61 6 -105 9 -44 3 -91 8 -105 10 -68 10 -763 27 -773 19z m1288 -1738 c5
-10 68 -108 139 -219 198 -311 296 -467 296 -473 0 -3 14 -25 30 -49 17 -24
30 -48 30 -54 0 -6 5 -11 10 -11 6 0 10 -5 10 -11 0 -6 15 -34 34 -62 54 -85
101 -165 165 -287 l61 -115 0 648 c0 510 3 647 13 648 15 1 398 1 412 0 7 -1
10 -335 10 -983 l0 -983 -259 0 c-163 0 -263 3 -271 10 -6 5 -142 219 -300
475 -159 256 -303 488 -320 515 -48 74 -145 245 -145 255 0 5 -3 11 -7 13 -5
3 -8 -281 -8 -631 l0 -637 -215 0 -215 0 0 980 c-1 778 2 981 12 985 7 3 124
4 260 4 221 -1 248 -3 258 -18z m-1695 3 c100 -14 211 -45 292 -80 329 -144
515 -475 509 -904 -3 -150 -12 -211 -57 -351 -73 -230 -219 -407 -423 -509
-51 -25 -117 -52 -151 -60 -63 -16 -165 -35 -215 -41 -81 -9 -837 -12 -850 -3
-7 5 -9 341 -8 981 1 535 2 974 2 976 2 7 845 -1 901 -9z"/>
<path d="M3140 4082 c-7 -3 -10 -206 -10 -584 l0 -580 153 5 c83 3 163 8 176
11 259 60 363 218 364 551 1 190 -16 283 -71 391 -55 107 -183 184 -334 200
-67 7 -261 11 -278 6z"/>
<path d="M540 4498 c-153 -29 -251 -66 -337 -131 -140 -105 -207 -263 -199
-471 9 -195 78 -335 220 -441 66 -48 114 -72 318 -156 194 -79 240 -105 263
-149 31 -60 17 -149 -31 -191 -98 -86 -332 -87 -581 -4 -56 19 -121 43 -143
54 -22 10 -42 16 -44 13 -8 -16 0 -412 9 -421 14 -14 231 -78 290 -85 148 -19
211 -23 325 -21 213 4 356 45 490 142 91 66 173 192 204 313 20 82 14 268 -13
351 -26 82 -84 173 -142 223 -91 78 -160 112 -479 236 -101 39 -164 80 -185
120 -21 40 -19 109 4 146 63 103 322 111 599 18 57 -18 105 -34 106 -34 2 0 0
401 -2 411 -1 4 -12 9 -24 12 -13 3 -59 14 -103 26 -44 12 -109 26 -145 32
-81 14 -339 19 -400 7z"/>
</g>
</svg>
