<svg id="Laag_1" data-name="Laag 1" xmlns="http://www.w3.org/2000/svg" viewBox="0 0 85.04 85.04"><defs><style>.cls-1{fill:none;}.cls-2{fill:#26b4b3;}.cls-3{fill:#fff;}.cls-4{fill:#0863aa;}.cls-5{fill:#e85523;}.cls-6{fill:#e57e37;}.cls-7{fill:#642480;}.cls-8{fill:#32a9cc;}.cls-9{fill:#078e38;}.cls-10{fill:#1f3460;}.cls-11{fill:#54b171;}</style></defs><rect class="cls-1" width="85.04" height="85.04" transform="translate(0 85.04) rotate(-90)"/><path class="cls-2" d="M69.19,45.9C65.83,35,59.12,21.82,55.25,14.36a48.37,48.37,0,0,1,9.54,1.49C64.83,23.22,68.62,35.85,69.19,45.9Z" transform="translate(0 0)"/><path class="cls-3" d="M5.54,51.9V47.44A12.88,12.88,0,0,0,11,48.89c2.18,0,3.14-.73,3.14-1.92,0-1.59-1.42-1.62-4.6-3A6,6,0,0,1,5.5,38c0-4.17,3.15-6.09,7.45-6.09a15.44,15.44,0,0,1,5.3.93v4.37a12.37,12.37,0,0,0-4.9-1.13c-1.89,0-2.75.63-2.75,1.73s1.12,1.62,3,2.31c3.15,1.13,5.9,2.35,5.9,6.59s-3.31,6.36-7.62,6.36A15.49,15.49,0,0,1,5.54,51.9Z" transform="translate(0 0)"/><path class="cls-4" d="M55.48,45.87V36.63c-8.81-5.75-18.31-11.75-25.74-17.1-3,2.72-5.17,7.34-6.13,12.7h5.16V45.89h5.06V32.23h7.52c7.58,0,10.36,5,10.36,10.29a13.05,13.05,0,0,1-.44,3.35Z" transform="translate(0 0)"/><path class="cls-5" d="M63.86,45.88H60.05v7H55.48v-7H51.27c-1,3.77-4,7-10,7H33.83v-7H28.77v7H23.61c1.17,7.77,4.25,13.07,11.59,15.5,9.56-6.81,21.48-12,30.56-19.41Z" transform="translate(0 0)"/><path class="cls-6" d="M65.76,48.94c-9.08,7.4-21,12.6-30.56,19.41a38.37,38.37,0,0,0,8.46,1.92c7.06-6.35,16-12.37,22.63-20.48Z" transform="translate(0 0)"/><path class="cls-7" d="M68.63,52.85h-.44l-1.9-3.06C59.63,57.9,50.72,63.92,43.66,70.27c8.41,1,16.5.89,23.15-1.41C66.18,63.59,67.74,58.68,68.63,52.85Z" transform="translate(0 0)"/><path class="cls-8" d="M71.43,52.85h-2.8c-.89,5.83-2.45,10.74-1.82,16a14.91,14.91,0,0,0,7.91-5.75A39.65,39.65,0,0,1,71.43,52.85Z" transform="translate(0 0)"/><path class="cls-3" d="M73.72,52v.82H71.43a39.65,39.65,0,0,0,3.29,10.26,21,21,0,0,0,2.68-5.56A64.55,64.55,0,0,1,73.72,52Z" transform="translate(0 0)"/><path class="cls-9" d="M79.46,38.11c-2.46,1.17-3.83,3.26-5.74,5.06V52a64.55,64.55,0,0,0,3.68,5.52C79.28,51.67,79.74,45.26,79.46,38.11Z" transform="translate(0 0)"/><path class="cls-3" d="M79.27,35.21c-2.43,1.75-3.77,4.36-5.55,6.71v1.25c1.91-1.8,3.28-3.89,5.74-5.06C79.41,37.05,79.36,36.24,79.27,35.21Z" transform="translate(0 0)"/><path class="cls-5" d="M78.54,30.3C76.33,32.78,75.11,36,73.72,39v2.9c1.78-2.35,3.12-5,5.55-6.71A42.54,42.54,0,0,0,78.54,30.3Z" transform="translate(0 0)"/><path class="cls-10" d="M73.72,39c1.39-3.06,2.61-6.24,4.82-8.72-.06-.31,0-.2-.11-.51A18.25,18.25,0,0,0,74.17,21c-1.5,3.2-2.12,7.15-2.61,11.22h2.16V39Z" transform="translate(0 0)"/><path class="cls-11" d="M71.56,32.23c.49-4.07,1.11-8,2.61-11.22a14.89,14.89,0,0,0-3.07-2.54c-1.2,3.77-1.27,8.69-1.26,13.76Z" transform="translate(0 0)"/><path class="cls-10" d="M69.46,32.23c-.14-5.27-.23-10.36.85-14.23l-.41-.22c-1,3.91-.84,9.09-.62,14.45Z" transform="translate(0 0)"/><path class="cls-11" d="M69.15,32.23h.13c-.22-5.36-.39-10.54.62-14.45-.5-.26-1.19-.58-1.73-.81-1,5.91.58,14.9,1,23.11Z" transform="translate(0 0)"/><path class="cls-4" d="M69.15,42.69V40.08c-.4-8.21-2-17.2-1-23.11a28.48,28.48,0,0,0-3.38-1.12c0,7.37,3.83,20,4.4,30.05C69.12,45,69.15,43.55,69.15,42.69Z" transform="translate(0 0)"/><path class="cls-6" d="M69.19,45.9C65.83,35,59.12,21.82,55.25,14.36c-2.51-.17-4.7-.23-7.21-.16a173,173,0,0,1,20.26,30C68.64,44.79,69,45.4,69.19,45.9Z" transform="translate(0 0)"/><path class="cls-7" d="M48,14.2l-1.19,0a167.69,167.69,0,0,1,14,18h.1l1.38,2.2h0l4.47,7.17v0l.57.9c.31.51.63,1.08.93,1.64A173,173,0,0,0,48,14.2Z" transform="translate(0 0)"/><path class="cls-8" d="M60.84,32.23a167.69,167.69,0,0,0-14-18c-.7,0-1.05,0-1.75.11a174.58,174.58,0,0,1,15,17.88Z" transform="translate(0 0)"/><path class="cls-9" d="M60.11,32.23a174.58,174.58,0,0,0-15-17.88c-1.4.09-2.63.23-3.94.43a216.29,216.29,0,0,1,17.1,17.45Z" transform="translate(0 0)"/><path class="cls-3" d="M55.48,32.23h2.78a216.29,216.29,0,0,0-17.1-17.45,28.22,28.22,0,0,0-6,1.5c6.21,4.93,13.48,10.83,20.31,16.79Z" transform="translate(0 0)"/><path class="cls-5" d="M55.48,33.07c-6.83-6-14.1-11.86-20.31-16.79a17.6,17.6,0,0,0-3.7,1.88c7.1,5.3,15.86,11.37,24,17.29Z" transform="translate(0 0)"/><path class="cls-10" d="M55.48,35.45c-8.15-5.92-16.91-12-24-17.29l-.36.26C38.28,23.73,47.19,29.8,55.48,35.7Z" transform="translate(0 0)"/><path class="cls-3" d="M69.84,32.23c0-5.07.06-10,1.26-13.76-.23-.15-.55-.33-.79-.47-1.08,3.87-1,9-.85,14.23Z" transform="translate(0 0)"/><path class="cls-4" d="M63.86,45.88l-2.09-3.36c-.56-.88-1.2-2-1.65-2.84,0-.11-.12-.23-.17-.34a1.85,1.85,0,0,1,0,.23c0,.88.09,1.9.09,2.78v3.53Z" transform="translate(0 0)"/><path class="cls-11" d="M55.48,35.7c-8.29-5.9-17.2-12-24.37-17.28a14.75,14.75,0,0,0-1.37,1.11c7.43,5.35,16.93,11.35,25.74,17.1Z" transform="translate(0 0)"/><path class="cls-5" d="M45.78,45.87H39v2.73h1.75C43.63,48.61,45.09,47.54,45.78,45.87Z" transform="translate(0 0)"/><path class="cls-4" d="M41,36.4H39v9.48h6.78a8.86,8.86,0,0,0,.53-3.35C46.31,39,45.29,36.4,41,36.4Z" transform="translate(0 0)"/><path class="cls-3" d="M55.48,35.45V32.23H61l1.37,2.2h0l4.47,7.17v0l.57.9c.31.51.63,1.08.93,1.64s.66,1.24.89,1.74c-.07-.93,0-2.35,0-3.21V32.23h4.57V52.85H68.19l-1.9-3.06-.53-.85-1.9-3.06-2.09-3.36c-.56-.88-1.2-2-1.65-2.84,0-.11-.12-.23-.17-.34a1.85,1.85,0,0,1,0,.23c0,.88.09,1.9.09,2.78v10.5H55.48V35.45Z" transform="translate(0 0)"/><rect class="cls-3" x="23.61" y="32.23" width="5.16" height="20.62"/><path class="cls-3" d="M41.35,32.23H33.83V52.85h7.42c6,0,9-3.21,10-7a13.05,13.05,0,0,0,.44-3.35C51.71,37.19,48.93,32.23,41.35,32.23Zm4.43,13.64c-.69,1.67-2.15,2.74-5,2.74H39V36.4h2c4.34,0,5.36,2.61,5.36,6.12A8.86,8.86,0,0,1,45.78,45.87Z" transform="translate(0 0)"/></svg>